<svg width="540" height="575" viewBox="0 0 540 575" fill="none" xmlns="http://www.w3.org/2000/svg">
<mask id="mask0" mask-type="alpha" maskUnits="userSpaceOnUse" x="0" y="0" width="540" height="575">
<rect width="540" height="574.839" rx="10" fill="#C4C4C4"/>
</mask>
<g mask="url(#mask0)">
<circle cx="269.208" cy="288.211" r="443.402" fill="url(#paint0_radial)"/>
<circle cx="269.208" cy="288.211" r="443.402" fill="url(#paint1_angular)" style="mix-blend-mode:difference"/>
<circle cx="269.208" cy="288.211" r="443.402" fill="url(#paint2_angular)" style="mix-blend-mode:screen"/>
</g>
<rect x="25.5" y="25.5" width="490" height="525" rx="4.5" stroke="black" stroke-width="3"/>
<line x1="25" y1="63.5" x2="517" y2="63.5" stroke="black" stroke-width="3"/>
<line x1="25" y1="427.5" x2="517" y2="427.5" stroke="black" stroke-width="3"/>
<path d="M167.899 48.4775V47.5285H173.177V45.2665H167.899V44.4215H174.464V41.8995H164.337V50.9995H174.607V48.4775H167.899Z" fill="black"/>
<path d="M183.82 41.8995V46.2805L179.738 41.8995H175.89V50.9995H179.4V46.0465L184.132 50.9995H187.33V41.8995H183.82Z" fill="black"/>
<path d="M198.821 41.8995H188.317V44.5645H191.749V50.9995H195.389V44.5645H198.821V41.8995Z" fill="black"/>
<path d="M211.196 50.9995L208.726 48.1265C210.039 47.6455 210.91 46.6835 210.91 45.2015C210.91 42.9395 208.869 41.8995 206.347 41.8995H199.808V50.9995H203.422V48.5035H205.047L207.088 50.9995H211.196ZM203.422 44.3955H206.035C206.737 44.3955 207.231 44.6295 207.231 45.3055C207.231 45.9815 206.737 46.2155 206.035 46.2155H203.422V44.3955Z" fill="black"/>
<path d="M210.601 41.8995L214.683 48.0095V50.9995H218.323V48.0095L222.405 41.8995H218.44L216.516 45.2275L214.579 41.8995H210.601Z" fill="black"/>
<path d="M232.078 41.8995H225.63V50.9995H229.27V48.6335H232.078C234.821 48.6335 236.628 47.5545 236.628 45.2665C236.628 42.9785 234.821 41.8995 232.078 41.8995ZM231.779 46.3455H229.27V44.3955H231.779C232.455 44.3955 232.962 44.6685 232.962 45.3705C232.962 46.0725 232.455 46.3455 231.779 46.3455Z" fill="black"/>
<path d="M244.877 50.9995H248.699L244.175 41.8995H240.223L235.699 50.9995H239.469L240.106 49.5695H244.24L244.877 50.9995ZM241.094 47.3595L242.173 44.9415L243.252 47.3595H241.094Z" fill="black"/>
<path d="M254.205 44.9285C252.892 44.8245 252.268 44.7335 252.268 44.4345C252.268 44.0835 253.152 44.0055 253.945 44.0055C255.258 44.0055 256.441 44.2525 257.494 44.8895L259.145 42.8745C257.767 42.0165 255.817 41.5875 253.932 41.5875C250.916 41.5875 248.693 42.7055 248.693 44.7465C248.693 46.8785 251.202 47.5415 254.075 47.7885C255.596 47.9185 255.947 48.0615 255.947 48.3735C255.947 48.6985 255.44 48.8545 254.374 48.8545C252.619 48.8545 251.033 48.3085 250.019 47.6195L248.277 49.6215C249.785 50.7005 251.917 51.3115 254.322 51.3115C257.741 51.3115 259.522 50.0115 259.522 47.9835C259.522 45.7605 257.312 45.1885 254.205 44.9285Z" fill="black"/>
<path d="M265.948 44.9285C264.635 44.8245 264.011 44.7335 264.011 44.4345C264.011 44.0835 264.895 44.0055 265.688 44.0055C267.001 44.0055 268.184 44.2525 269.237 44.8895L270.888 42.8745C269.51 42.0165 267.56 41.5875 265.675 41.5875C262.659 41.5875 260.436 42.7055 260.436 44.7465C260.436 46.8785 262.945 47.5415 265.818 47.7885C267.339 47.9185 267.69 48.0615 267.69 48.3735C267.69 48.6985 267.183 48.8545 266.117 48.8545C264.362 48.8545 262.776 48.3085 261.762 47.6195L260.02 49.6215C261.528 50.7005 263.66 51.3115 266.065 51.3115C269.484 51.3115 271.265 50.0115 271.265 47.9835C271.265 45.7605 269.055 45.1885 265.948 44.9285Z" fill="black"/>
<path d="M277.786 49.4525C279.19 49.4525 280.191 48.4645 280.191 47.2685C280.191 46.0725 279.19 45.0845 277.786 45.0845C276.382 45.0845 275.381 46.0725 275.381 47.2685C275.381 48.4645 276.382 49.4525 277.786 49.4525Z" fill="black"/>
<path d="M288.302 48.4775V47.5285H293.579V45.2665H288.302V44.4215H294.867V41.8995H284.74V50.9995H295.009V48.4775H288.302Z" fill="black"/>
<path d="M306.172 41.8995H295.668V44.5645H299.1V50.9995H302.74V44.5645H306.172V41.8995Z" fill="black"/>
<path d="M314.959 41.8995V44.9935H310.799V41.8995H307.159V50.9995H310.799V47.7755H314.959V50.9995H318.599V41.8995H314.959Z" fill="black"/>
<path d="M332.201 38.5195H328.119L326.559 40.8595H328.99L332.201 38.5195ZM326.819 48.4775V47.5285H332.097V45.2665H326.819V44.4215H333.384V41.8995H323.257V50.9995H333.527V48.4775H326.819Z" fill="black"/>
<path d="M340.235 48.5295C338.857 48.5295 337.921 47.7495 337.921 46.4495C337.921 45.1495 338.857 44.3695 340.235 44.3695C341.223 44.3695 342.016 44.7725 342.549 45.5785L345.474 44.0315C344.694 42.6535 342.731 41.5875 340.287 41.5875C336.699 41.5875 334.229 43.3165 334.229 46.4495C334.229 49.5825 336.699 51.3115 340.157 51.3115C342.731 51.3115 344.72 50.2715 345.526 48.8415L342.601 47.2945C342.042 48.1525 341.223 48.5295 340.235 48.5295Z" fill="black"/>
<path d="M352.109 51.3115C355.801 51.3115 358.297 49.5825 358.297 46.4495C358.297 43.3165 355.801 41.5875 352.109 41.5875C348.417 41.5875 345.921 43.3165 345.921 46.4495C345.921 49.5825 348.417 51.3115 352.109 51.3115ZM352.109 48.5295C350.549 48.5295 349.613 47.7495 349.613 46.4495C349.613 45.1495 350.549 44.3695 352.109 44.3695C353.669 44.3695 354.605 45.1495 354.605 46.4495C354.605 47.7495 353.669 48.5295 352.109 48.5295Z" fill="black"/>
<path d="M363.13 48.2955V41.8995H359.49V50.9995H368.72V48.2955H363.13Z" fill="black"/>
<path d="M373.284 48.4775V47.5285H378.562V45.2665H373.284V44.4215H379.849V41.8995H369.722V50.9995H379.992V48.4775H373.284Z" fill="black"/>
<path d="M84.4721 201.912V198.116H105.584V189.068H84.4721V185.688H110.732V175.6H70.2241V212H111.304V201.912H84.4721Z" fill="black"/>
<path d="M155.955 175.6H113.939V186.26H127.667V212H142.227V186.26H155.955V175.6Z" fill="black"/>
<path d="M191.104 175.6V187.976H174.464V175.6H159.904V212H174.464V199.104H191.104V212H205.664V175.6H191.104Z" fill="black"/>
<path d="M260.07 162.08H243.742L237.502 171.44H247.226L260.07 162.08ZM238.542 201.912V198.116H259.654V189.068H238.542V185.688H264.802V175.6H224.294V212H265.374V201.912H238.542Z" fill="black"/>
<path d="M292.205 202.12C286.693 202.12 282.949 199 282.949 193.8C282.949 188.6 286.693 185.48 292.205 185.48C296.157 185.48 299.329 187.092 301.461 190.316L313.161 184.128C310.041 178.616 302.189 174.352 292.413 174.352C278.061 174.352 268.181 181.268 268.181 193.8C268.181 206.332 278.061 213.248 291.893 213.248C302.189 213.248 310.145 209.088 313.369 203.368L301.669 197.18C299.433 200.612 296.157 202.12 292.205 202.12Z" fill="black"/>
<path d="M339.703 213.248C354.471 213.248 364.455 206.332 364.455 193.8C364.455 181.268 354.471 174.352 339.703 174.352C324.935 174.352 314.951 181.268 314.951 193.8C314.951 206.332 324.935 213.248 339.703 213.248ZM339.703 202.12C333.463 202.12 329.719 199 329.719 193.8C329.719 188.6 333.463 185.48 339.703 185.48C345.943 185.48 349.687 188.6 349.687 193.8C349.687 199 345.943 202.12 339.703 202.12Z" fill="black"/>
<path d="M383.784 201.184V175.6H369.224V212H406.144V201.184H383.784Z" fill="black"/>
<path d="M424.402 201.912V198.116H445.514V189.068H424.402V185.688H450.662V175.6H410.154V212H451.234V201.912H424.402Z" fill="black"/>
<path d="M84.2239 237.298H79.7139L76.4799 240.84H79.1199L84.2239 237.298ZM74.5659 255.052V251.664H84.7079V248.716H74.5659V245.548H86.7099V242.6H71.0679V258H86.9299V255.052H74.5659Z" fill="black"/>
<path d="M98.2555 255.448C94.6035 255.448 92.1835 253.688 92.1835 250.3C92.1835 246.912 94.6035 245.152 98.2555 245.152C100.543 245.152 102.215 245.922 103.315 247.638L106.549 246.032C105.141 243.898 102.171 242.116 98.2995 242.116C92.3595 242.116 88.5975 245.174 88.5975 250.3C88.5975 255.426 92.3595 258.484 98.1455 258.484C102.171 258.484 105.141 256.724 106.593 254.546L103.381 252.94C102.237 254.7 100.543 255.448 98.2555 255.448Z" fill="black"/>
<path d="M117.874 258.484C123.88 258.484 127.664 255.448 127.664 250.3C127.664 245.152 123.88 242.116 117.874 242.116C111.868 242.116 108.084 245.152 108.084 250.3C108.084 255.448 111.868 258.484 117.874 258.484ZM117.874 255.448C114.046 255.448 111.67 253.6 111.67 250.3C111.67 247 114.068 245.152 117.874 245.152C121.68 245.152 124.078 247 124.078 250.3C124.078 253.6 121.68 255.448 117.874 255.448Z" fill="black"/>
<path d="M134.357 254.964V242.6H130.837V258H145.247V254.964H134.357Z" fill="black"/>
<path d="M151.201 255.052V251.664H161.343V248.716H151.201V245.548H163.345V242.6H147.703V258H163.565V255.052H151.201Z" fill="black"/>
<path d="M186.835 242.6V253.16L176.451 242.6H172.711V258H176.121V246.868L187.165 258H190.245V242.6H186.835Z" fill="black"/>
<path d="M203.188 258.484C209.194 258.484 212.978 255.448 212.978 250.3C212.978 245.152 209.194 242.116 203.188 242.116C197.182 242.116 193.398 245.152 193.398 250.3C193.398 255.448 197.182 258.484 203.188 258.484ZM203.188 255.448C199.36 255.448 196.984 253.6 196.984 250.3C196.984 247 199.382 245.152 203.188 245.152C206.994 245.152 209.392 247 209.392 250.3C209.392 253.6 206.994 255.448 203.188 255.448Z" fill="black"/>
<path d="M233.84 258L229.088 252.522C231.64 251.928 233.378 250.3 233.378 247.682C233.378 244.338 230.54 242.6 226.778 242.6H216.152V258H219.65V252.764H225.216L229.638 258H233.84ZM219.628 249.86V245.548H226.58C228.428 245.548 229.792 245.988 229.792 247.704C229.792 249.42 228.428 249.86 226.58 249.86H219.628Z" fill="black"/>
<path d="M253.5 242.6L246.988 250.74L240.476 242.6H236.648V258H240.058V247.286L246.812 255.536H246.988L253.742 247.286V258H257.262V242.6H253.5Z" fill="black"/>
<path d="M275.742 258H279.548L271.386 242.6H267.536L259.374 258H263.136L264.786 254.744H274.092L275.742 258ZM266.238 251.884L269.428 245.614L272.618 251.884H266.238Z" fill="black"/>
<path d="M285.156 254.964V242.6H281.636V258H296.046V254.964H285.156Z" fill="black"/>
<path d="M302 255.052V251.664H312.142V248.716H302V245.548H314.144V242.6H298.502V258H314.364V255.052H302Z" fill="black"/>
<path d="M79.0539 274.518C75.9959 274.276 73.7959 274.144 73.7959 272.824C73.7959 271.416 76.3479 271.042 78.4379 271.064C80.9459 271.086 83.0359 271.614 84.7299 272.912L86.6659 270.47C84.7079 268.952 81.8039 268.116 78.4379 268.116C73.6859 268.116 70.2539 269.876 70.2539 273.088C70.2539 276.388 74.3459 277.356 78.7459 277.73C82.2879 278.038 83.8719 278.39 83.8719 279.666C83.8719 280.942 82.2879 281.536 79.1639 281.536C76.0179 281.536 73.5759 280.722 71.6839 278.984L69.6599 281.382C72.0139 283.384 75.1819 284.484 79.0759 284.484C84.5319 284.484 87.4139 282.372 87.4139 279.336C87.4139 275.948 83.9599 274.914 79.0539 274.518Z" fill="black"/>
<path d="M103.783 268.6V276.476C103.783 279.556 101.979 281.404 98.657 281.404C95.335 281.404 93.531 279.556 93.531 276.476V268.6H90.011V276.74C90.011 281.36 93.069 284.484 98.657 284.484C104.245 284.484 107.303 281.36 107.303 276.74V268.6H103.783Z" fill="black"/>
<path d="M121.696 268.6H111.158V284H114.678V279.028H121.696C125.656 279.028 128.296 277.224 128.296 273.814C128.296 270.448 125.656 268.6 121.696 268.6ZM121.41 276.124H114.678V271.548H121.41C123.39 271.548 124.71 272.076 124.71 273.836C124.71 275.596 123.39 276.124 121.41 276.124Z" fill="black"/>
<path d="M144.187 263.298H139.677L136.443 266.84H139.083L144.187 263.298ZM134.529 281.052V277.664H144.671V274.716H134.529V271.548H146.673V268.6H131.031V284H146.893V281.052H134.529Z" fill="black"/>
<path d="M167.625 284L162.873 278.522C165.425 277.928 167.163 276.3 167.163 273.682C167.163 270.338 164.325 268.6 160.563 268.6H149.937V284H153.435V278.764H159.001L163.423 284H167.625ZM153.413 275.86V271.548H160.365C162.213 271.548 163.577 271.988 163.577 273.704C163.577 275.42 162.213 275.86 160.365 275.86H153.413Z" fill="black"/>
<path d="M173.953 284V268.6H170.433V284H173.953Z" fill="black"/>
<path d="M181.58 281.052V277.664H191.722V274.716H181.58V271.548H193.724V268.6H178.082V284H193.944V281.052H181.58Z" fill="black"/>
<path d="M210.496 268.6V276.476C210.496 279.556 208.692 281.404 205.37 281.404C202.048 281.404 200.244 279.556 200.244 276.476V268.6H196.724V276.74C196.724 281.36 199.782 284.484 205.37 284.484C210.958 284.484 214.016 281.36 214.016 276.74V268.6H210.496Z" fill="black"/>
<path d="M235.559 284L230.807 278.522C233.359 277.928 235.097 276.3 235.097 273.682C235.097 270.338 232.259 268.6 228.497 268.6H217.871V284H221.369V278.764H226.935L231.357 284H235.559ZM221.347 275.86V271.548H228.299C230.147 271.548 231.511 271.988 231.511 273.704C231.511 275.42 230.147 275.86 228.299 275.86H221.347Z" fill="black"/>
<path d="M241.865 281.052V277.664H252.007V274.716H241.865V271.548H254.009V268.6H238.367V284H254.229V281.052H241.865Z" fill="black"/>
<path d="M258.439 280.59C257.251 280.59 256.393 281.404 256.393 282.416C256.393 283.494 257.251 284.264 258.307 284.264C258.571 284.264 258.747 284.22 258.835 284.132C258.615 285.078 258.021 285.804 257.009 286.706L257.779 287.674C259.671 286.398 260.595 284.33 260.595 282.856C260.595 281.602 259.759 280.59 258.439 280.59Z" fill="black"/>
<path d="M286.515 278.038H283.391V268.6H280.267L268.299 278.72V280.766H279.959V284H283.391V280.766H286.515V278.038ZM272.963 278.038L279.981 272.076V278.038H272.963Z" fill="black"/>
<path d="M290.056 279.16L287.9 281.206C289.924 283.208 292.894 284.484 296.59 284.484C302.134 284.484 304.796 282.086 304.796 279.182C304.796 275.618 301.32 273.946 297.602 273.946C295.49 273.946 293.708 274.386 291.948 275.354L292.586 271.416H303.19V268.6H289.924L288.604 276.63L291.2 277.642C292.982 276.916 294.654 276.63 296.326 276.63C299.274 276.63 301.188 277.378 301.188 279.138C301.188 280.92 299.274 281.536 296.59 281.536C293.51 281.536 291.178 280.238 290.056 279.16Z" fill="black"/>
<path d="M331.422 284L326.67 278.522C329.222 277.928 330.96 276.3 330.96 273.682C330.96 270.338 328.122 268.6 324.36 268.6H313.734V284H317.232V278.764H322.798L327.22 284H331.422ZM317.21 275.86V271.548H324.162C326.01 271.548 327.374 271.988 327.374 273.704C327.374 275.42 326.01 275.86 324.162 275.86H317.21Z" fill="black"/>
<path d="M347.738 268.6V276.476C347.738 279.556 345.934 281.404 342.612 281.404C339.29 281.404 337.486 279.556 337.486 276.476V268.6H333.966V276.74C333.966 281.36 337.024 284.484 342.612 284.484C348.2 284.484 351.258 281.36 351.258 276.74V268.6H347.738Z" fill="black"/>
<path d="M358.611 281.052V277.664H368.753V274.716H358.611V271.548H370.755V268.6H355.113V284H370.975V281.052H358.611Z" fill="black"/>
<path d="M388.305 268.6H380.121V284H388.305C394.113 284 397.831 281.096 397.831 276.3C397.831 271.504 394.113 268.6 388.305 268.6ZM388.041 281.008H383.641V271.592H388.041C391.737 271.592 394.245 273.132 394.245 276.3C394.245 279.468 391.737 281.008 388.041 281.008Z" fill="black"/>
<path d="M400.52 267.72V274.43H403.424V267.72H400.52Z" fill="black"/>
<path d="M420.613 268.6V276.476C420.613 279.556 418.809 281.404 415.487 281.404C412.165 281.404 410.361 279.556 410.361 276.476V268.6H406.841V276.74C406.841 281.36 409.899 284.484 415.487 284.484C421.075 284.484 424.133 281.36 424.133 276.74V268.6H420.613Z" fill="black"/>
<path d="M431.508 280.964V268.6H427.988V284H442.398V280.964H431.508Z" fill="black"/>
<path d="M461.705 268.6L455.193 276.74L448.681 268.6H444.853V284H448.263V273.286L455.017 281.536H455.193L461.947 273.286V284H465.467V268.6H461.705Z" fill="black"/>
<path d="M470.769 280.59C469.581 280.59 468.723 281.404 468.723 282.416C468.723 283.494 469.581 284.264 470.637 284.264C470.901 284.264 471.077 284.22 471.165 284.132C470.945 285.078 470.351 285.804 469.339 286.706L470.109 287.674C472.001 286.398 472.925 284.33 472.925 282.856C472.925 281.602 472.089 280.59 470.769 280.59Z" fill="black"/>
<path d="M72.7619 310H76.7879L85.3899 296.91V294.6H69.4399V297.548H81.0999L72.7619 310Z" fill="black"/>
<path d="M88.6612 305.16L86.5052 307.206C88.5292 309.208 91.4992 310.484 95.1952 310.484C100.739 310.484 103.401 308.086 103.401 305.182C103.401 301.618 99.9252 299.946 96.2072 299.946C94.0952 299.946 92.3132 300.386 90.5532 301.354L91.1912 297.416H101.795V294.6H88.5292L87.2092 302.63L89.8052 303.642C91.5872 302.916 93.2592 302.63 94.9312 302.63C97.8792 302.63 99.7932 303.378 99.7932 305.138C99.7932 306.92 97.8792 307.536 95.1952 307.536C92.1152 307.536 89.7832 306.238 88.6612 305.16Z" fill="black"/>
<path d="M114.598 310.484C120.428 310.484 123.97 307.426 123.97 302.3C123.97 297.174 120.428 294.116 114.598 294.116C108.79 294.116 105.248 297.174 105.248 302.3C105.248 307.426 108.79 310.484 114.598 310.484ZM114.62 307.448C111.034 307.448 108.834 305.688 108.834 302.3C108.834 298.912 111.034 297.152 114.62 297.152C118.184 297.152 120.384 298.912 120.384 302.3C120.384 305.688 118.184 307.448 114.62 307.448Z" fill="black"/>
<path d="M135.481 310.484C141.311 310.484 144.853 307.426 144.853 302.3C144.853 297.174 141.311 294.116 135.481 294.116C129.673 294.116 126.131 297.174 126.131 302.3C126.131 307.426 129.673 310.484 135.481 310.484ZM135.503 307.448C131.917 307.448 129.717 305.688 129.717 302.3C129.717 298.912 131.917 297.152 135.503 297.152C139.067 297.152 141.267 298.912 141.267 302.3C141.267 305.688 139.067 307.448 135.503 307.448Z" fill="black"/>
<path d="M148.817 305.16L146.661 307.206C148.685 309.208 151.655 310.484 155.351 310.484C160.895 310.484 163.557 308.086 163.557 305.182C163.557 301.618 160.081 299.946 156.363 299.946C154.251 299.946 152.469 300.386 150.709 301.354L151.347 297.416H161.951V294.6H148.685L147.365 302.63L149.961 303.642C151.743 302.916 153.415 302.63 155.087 302.63C158.035 302.63 159.949 303.378 159.949 305.138C159.949 306.92 158.035 307.536 155.351 307.536C152.271 307.536 149.939 306.238 148.817 305.16Z" fill="black"/>
<path d="M183.034 294.6H172.496V310H176.016V305.028H183.034C186.994 305.028 189.634 303.224 189.634 299.814C189.634 296.448 186.994 294.6 183.034 294.6ZM182.748 302.124H176.016V297.548H182.748C184.728 297.548 186.048 298.076 186.048 299.836C186.048 301.596 184.728 302.124 182.748 302.124Z" fill="black"/>
<path d="M204.994 310H208.8L200.638 294.6H196.788L188.626 310H192.388L194.038 306.744H203.344L204.994 310ZM195.49 303.884L198.68 297.614L201.87 303.884H195.49Z" fill="black"/>
<path d="M228.576 310L223.824 304.522C226.376 303.928 228.114 302.3 228.114 299.682C228.114 296.338 225.276 294.6 221.514 294.6H210.888V310H214.386V304.764H219.952L224.374 310H228.576ZM214.364 301.86V297.548H221.316C223.164 297.548 224.528 297.988 224.528 299.704C224.528 301.42 223.164 301.86 221.316 301.86H214.364Z" fill="black"/>
<path d="M234.904 310V294.6H231.384V310H234.904Z" fill="black"/>
<path d="M247.019 300.518C243.961 300.276 241.761 300.144 241.761 298.824C241.761 297.416 244.313 297.042 246.403 297.064C248.911 297.086 251.001 297.614 252.695 298.912L254.631 296.47C252.673 294.952 249.769 294.116 246.403 294.116C241.651 294.116 238.219 295.876 238.219 299.088C238.219 302.388 242.311 303.356 246.711 303.73C250.253 304.038 251.837 304.39 251.837 305.666C251.837 306.942 250.253 307.536 247.129 307.536C243.983 307.536 241.541 306.722 239.649 304.984L237.625 307.382C239.979 309.384 243.147 310.484 247.041 310.484C252.497 310.484 255.379 308.372 255.379 305.336C255.379 301.948 251.925 300.914 247.019 300.518Z" fill="black"/>
<path d="M259.406 306.59C258.218 306.59 257.36 307.404 257.36 308.416C257.36 309.494 258.218 310.264 259.274 310.264C259.538 310.264 259.714 310.22 259.802 310.132C259.582 311.078 258.988 311.804 257.976 312.706L258.746 313.674C260.638 312.398 261.562 310.33 261.562 308.856C261.562 307.602 260.726 306.59 259.406 306.59Z" fill="black"/>
<path d="M286.492 297.636V294.6H270.916V310H274.436V304.236H284.6V301.2H274.436V297.636H286.492Z" fill="black"/>
<path d="M306.822 310L302.07 304.522C304.622 303.928 306.36 302.3 306.36 299.682C306.36 296.338 303.522 294.6 299.76 294.6H289.134V310H292.632V304.764H298.198L302.62 310H306.822ZM292.61 301.86V297.548H299.562C301.41 297.548 302.774 297.988 302.774 299.704C302.774 301.42 301.41 301.86 299.562 301.86H292.61Z" fill="black"/>
<path d="M323.781 310H327.587L319.425 294.6H315.575L307.413 310H311.175L312.825 306.744H322.131L323.781 310ZM314.277 303.884L317.467 297.614L320.657 303.884H314.277Z" fill="black"/>
<path d="M343.799 294.6V305.16L333.415 294.6H329.675V310H333.085V298.868L344.129 310H347.209V294.6H343.799Z" fill="black"/>
<path d="M360.021 307.448C356.369 307.448 353.949 305.688 353.949 302.3C353.949 298.912 356.369 297.152 360.021 297.152C362.309 297.152 363.981 297.922 365.081 299.638L368.315 298.032C366.907 295.898 363.937 294.116 360.065 294.116C354.125 294.116 350.363 297.174 350.363 302.3C350.363 307.426 354.125 310.484 359.911 310.484C363.937 310.484 366.907 308.724 368.359 306.546L365.147 304.94C364.003 306.7 362.309 307.448 360.021 307.448Z" fill="black"/>
<path d="M374.488 307.052V303.664H384.63V300.716H374.488V297.548H386.632V294.6H370.99V310H386.852V307.052H374.488Z" fill="black"/>
<path d="M71.508 477.644L69.022 479.734C70.364 481.45 72.388 482.484 75.424 482.484C80.616 482.484 83.08 479.448 83.08 475.378V466.6H79.56V475.114C79.56 477.776 78.394 479.404 75.424 479.404C73.532 479.404 72.41 478.832 71.508 477.644Z" fill="black"/>
<path d="M100.431 466.6V474.476C100.431 477.556 98.6274 479.404 95.3054 479.404C91.9834 479.404 90.1794 477.556 90.1794 474.476V466.6H86.6594V474.74C86.6594 479.36 89.7174 482.484 95.3054 482.484C100.893 482.484 103.951 479.36 103.951 474.74V466.6H100.431Z" fill="black"/>
<path d="M111.326 478.964V466.6H107.806V482H122.216V478.964H111.326Z" fill="black"/>
<path d="M119.64 466.6L127.054 476.742V482H130.574V476.742L137.988 466.6H134.006L128.836 473.816L123.644 466.6H119.64Z" fill="black"/>
<path d="M144.567 469.746L146.657 471.616C148.241 469.9 150.133 468.932 152.465 468.932C154.489 468.932 156.491 469.614 156.491 470.934C156.491 472.21 154.555 472.782 152.025 473.64C147.471 475.114 144.677 477.578 144.237 480.438V482H160.385V479.162H148.549C149.055 478.084 151.211 477.05 154.071 476.104C157.569 474.982 160.055 473.508 160.055 470.868C160.055 467.656 156.249 466.138 152.575 466.138C148.989 466.138 146.041 467.7 144.567 469.746Z" fill="black"/>
<path d="M166.726 482H170.246V466.6H167.584C166.132 467.876 164.042 468.976 162.062 469.262V472.232C163.8 471.946 165.428 471.44 166.726 470.494V482Z" fill="black"/>
<path d="M175.552 478.59C174.364 478.59 173.506 479.404 173.506 480.416C173.506 481.494 174.364 482.264 175.42 482.264C175.684 482.264 175.86 482.22 175.948 482.132C175.728 483.078 175.134 483.804 174.122 484.706L174.892 485.674C176.784 484.398 177.708 482.33 177.708 480.856C177.708 479.602 176.872 478.59 175.552 478.59Z" fill="black"/>
<path d="M186.182 469.746L188.272 471.616C189.856 469.9 191.748 468.932 194.08 468.932C196.104 468.932 198.106 469.614 198.106 470.934C198.106 472.21 196.17 472.782 193.64 473.64C189.086 475.114 186.292 477.578 185.852 480.438V482H202V479.162H190.164C190.67 478.084 192.826 477.05 195.686 476.104C199.184 474.982 201.67 473.508 201.67 470.868C201.67 467.656 197.864 466.138 194.19 466.138C190.604 466.138 187.656 467.7 186.182 469.746Z" fill="black"/>
<path d="M213.533 482.484C219.363 482.484 222.905 479.426 222.905 474.3C222.905 469.174 219.363 466.116 213.533 466.116C207.725 466.116 204.183 469.174 204.183 474.3C204.183 479.426 207.725 482.484 213.533 482.484ZM213.555 479.448C209.969 479.448 207.769 477.688 207.769 474.3C207.769 470.912 209.969 469.152 213.555 469.152C217.119 469.152 219.319 470.912 219.319 474.3C219.319 477.688 217.119 479.448 213.555 479.448Z" fill="black"/>
<path d="M225.176 469.746L227.266 471.616C228.85 469.9 230.742 468.932 233.074 468.932C235.098 468.932 237.1 469.614 237.1 470.934C237.1 472.21 235.164 472.782 232.634 473.64C228.08 475.114 225.286 477.578 224.846 480.438V482H240.994V479.162H229.158C229.664 478.084 231.82 477.05 234.68 476.104C238.178 474.982 240.664 473.508 240.664 470.868C240.664 467.656 236.858 466.138 233.184 466.138C229.598 466.138 226.65 467.7 225.176 469.746Z" fill="black"/>
<path d="M247.336 482H250.856V466.6H248.194C246.742 467.876 244.652 468.976 242.672 469.262V472.232C244.41 471.946 246.038 471.44 247.336 470.494V482Z" fill="black"/>
<path d="M274.913 476.786V473.926H260.591V476.786H274.913Z" fill="black"/>
<path d="M300.22 469.636V466.6H284.644V482H288.164V476.236H298.328V473.2H288.164V469.636H300.22Z" fill="black"/>
<path d="M320.551 482L315.799 476.522C318.351 475.928 320.089 474.3 320.089 471.682C320.089 468.338 317.251 466.6 313.489 466.6H302.863V482H306.361V476.764H311.927L316.349 482H320.551ZM306.339 473.86V469.548H313.291C315.139 469.548 316.503 469.988 316.503 471.704C316.503 473.42 315.139 473.86 313.291 473.86H306.339Z" fill="black"/>
<path d="M331.966 482.484C337.972 482.484 341.756 479.448 341.756 474.3C341.756 469.152 337.972 466.116 331.966 466.116C325.96 466.116 322.176 469.152 322.176 474.3C322.176 479.448 325.96 482.484 331.966 482.484ZM331.966 479.448C328.138 479.448 325.762 477.6 325.762 474.3C325.762 471 328.16 469.152 331.966 469.152C335.772 469.152 338.17 471 338.17 474.3C338.17 477.6 335.772 479.448 331.966 479.448Z" fill="black"/>
<path d="M361.781 466.6L355.269 474.74L348.757 466.6H344.929V482H348.339V471.286L355.093 479.536H355.269L362.023 471.286V482H365.543V466.6H361.781Z" fill="black"/>
<path d="M382.887 466.116C377.673 466.116 374.637 468.404 374.637 471.572C374.637 475.224 378.487 476.676 381.853 476.676C384.427 476.676 387.045 475.84 388.629 474.366C388.607 478.392 386.055 479.756 382.557 479.756C380.511 479.756 378.619 479.14 377.211 477.798L375.121 479.844C376.815 481.494 379.411 482.484 382.887 482.484C388.673 482.484 392.193 479.316 392.193 474.3C392.193 469.284 388.673 466.116 382.887 466.116ZM378.179 471.594C378.179 469.724 380.071 468.844 382.887 468.844C385.571 468.844 387.617 469.724 388.343 472.122C386.847 473.442 384.581 474.124 382.601 474.124C380.093 474.124 378.179 473.508 378.179 471.594Z" fill="black"/>
<path d="M409.117 482H412.923L404.761 466.6H400.911L392.749 482H396.511L398.161 478.744H407.467L409.117 482ZM399.613 475.884L402.803 469.614L405.993 475.884H399.613Z" fill="black"/>
<path d="M431.863 466.6L425.351 474.74L418.839 466.6H415.011V482H418.421V471.286L425.175 479.536H425.351L432.105 471.286V482H435.625V466.6H431.863Z" fill="black"/>
<path d="M86.314 492.6H69.374V495.636H76.062V508H79.582V495.636H86.314V492.6Z" fill="black"/>
<path d="M96.991 508.484C102.997 508.484 106.781 505.448 106.781 500.3C106.781 495.152 102.997 492.116 96.991 492.116C90.985 492.116 87.201 495.152 87.201 500.3C87.201 505.448 90.985 508.484 96.991 508.484ZM96.991 505.448C93.163 505.448 90.787 503.6 90.787 500.3C90.787 497 93.185 495.152 96.991 495.152C100.797 495.152 103.195 497 103.195 500.3C103.195 503.6 100.797 505.448 96.991 505.448Z" fill="black"/>
<path d="M125.406 497.924C122.832 497.924 120.214 498.76 118.63 500.234C118.652 496.208 121.204 494.844 124.702 494.844C126.748 494.844 128.64 495.46 130.048 496.802L132.138 494.756C130.444 493.106 127.848 492.116 124.372 492.116C118.586 492.116 115.066 495.284 115.066 500.3C115.066 505.316 118.586 508.484 124.372 508.484C129.586 508.484 132.622 506.196 132.622 503.028C132.622 499.376 128.772 497.924 125.406 497.924ZM124.372 505.756C121.688 505.756 119.642 504.876 118.916 502.478C120.412 501.158 122.678 500.476 124.658 500.476C127.166 500.476 129.08 501.092 129.08 503.006C129.08 504.876 127.188 505.756 124.372 505.756Z" fill="black"/>
<path d="M146.145 492.6H135.607V508H139.127V503.028H146.145C150.105 503.028 152.745 501.224 152.745 497.814C152.745 494.448 150.105 492.6 146.145 492.6ZM145.859 500.124H139.127V495.548H145.859C147.839 495.548 149.159 496.076 149.159 497.836C149.159 499.596 147.839 500.124 145.859 500.124Z" fill="black"/>
<path d="M172.332 492.6L165.82 500.74L159.308 492.6H155.48V508H158.89V497.286L165.644 505.536H165.82L172.574 497.286V508H176.094V492.6H172.332Z" fill="black"/>
<path d="M186.2 510.64H189.39V492.6H186.2V510.64Z" fill="black"/>
<path d="M209.622 492.798C202.868 492.798 198.446 496.582 198.446 501.95C198.446 507.318 202.868 511.08 209.622 511.08C212.724 511.08 215.122 510.486 216.684 509.276L216.046 508.264C214.506 509.32 212.284 509.87 209.622 509.87C204.232 509.87 199.766 507.252 199.766 501.95C199.766 496.648 204.232 494.008 209.622 494.008C215.012 494.008 219.5 496.648 219.5 501.95C219.5 504.656 218.686 506.086 217.542 506.086C216.772 506.086 215.98 505.536 215.98 503.49V496.78H213.802L213.164 498.848C212.13 497.264 210.238 496.384 208.17 496.384C204.87 496.384 202.274 498.518 202.274 501.928C202.274 505.316 204.87 507.494 208.17 507.494C210.238 507.494 212.24 506.592 213.296 505.03C213.824 506.394 215.232 507.34 217.036 507.34C219.302 507.34 220.82 505.866 220.82 501.95C220.82 496.582 216.398 492.798 209.622 492.798ZM209.028 505.272C206.74 505.272 205.2 504.018 205.2 501.95C205.2 499.882 206.74 498.65 209.028 498.65C210.7 498.65 212.24 499.31 213.098 500.938V502.984C212.24 504.612 210.7 505.272 209.028 505.272Z" fill="black"/>
<path d="M227.556 505.052V501.664H237.698V498.716H227.556V495.548H239.7V492.6H224.058V508H239.92V505.052H227.556Z" fill="black"/>
<path d="M257.088 492.6V503.16L246.704 492.6H242.964V508H246.374V496.868L257.418 508H260.498V492.6H257.088Z" fill="black"/>
<path d="M272.628 498.518C269.57 498.276 267.37 498.144 267.37 496.824C267.37 495.416 269.922 495.042 272.012 495.064C274.52 495.086 276.61 495.614 278.304 496.912L280.24 494.47C278.282 492.952 275.378 492.116 272.012 492.116C267.26 492.116 263.828 493.876 263.828 497.088C263.828 500.388 267.92 501.356 272.32 501.73C275.862 502.038 277.446 502.39 277.446 503.666C277.446 504.942 275.862 505.536 272.738 505.536C269.592 505.536 267.15 504.722 265.258 502.984L263.234 505.382C265.588 507.384 268.756 508.484 272.65 508.484C278.106 508.484 280.988 506.372 280.988 503.336C280.988 499.948 277.534 498.914 272.628 498.518Z" fill="black"/>
<defs>
<radialGradient id="paint0_radial" cx="0" cy="0" r="1" gradientUnits="userSpaceOnUse" gradientTransform="translate(150.775 -111.861) rotate(82.0073) scale(851.748)">
<stop stop-color="#2AD0CA"/>
<stop offset="0.229167" stop-color="#E1F664"/>
<stop offset="0.46875" stop-color="#FEB0FE"/>
<stop offset="0.682292" stop-color="#ABB3FC"/>
<stop offset="0.875" stop-color="#5DF7A4"/>
<stop offset="1" stop-color="#58C4F6"/>
</radialGradient>
<radialGradient id="paint1_angular" cx="0" cy="0" r="1" gradientUnits="userSpaceOnUse" gradientTransform="translate(269.208 288.211) rotate(86.2064) scale(444.375)">
<stop offset="0.000690214" stop-color="white"/>
<stop offset="0.140625"/>
<stop offset="0.144348"/>
<stop offset="0.244792" stop-color="white"/>
<stop offset="0.395833"/>
<stop offset="0.546875" stop-color="white"/>
<stop offset="0.713542"/>
<stop offset="0.833333" stop-color="white"/>
<stop offset="0.931117"/>
<stop offset="0.931504"/>
</radialGradient>
<radialGradient id="paint2_angular" cx="0" cy="0" r="1" gradientUnits="userSpaceOnUse" gradientTransform="translate(269.208 288.211) rotate(86.2064) scale(444.375)">
<stop offset="0.000690214" stop-color="white"/>
<stop offset="0.140625"/>
<stop offset="0.144348"/>
<stop offset="0.244792" stop-color="white"/>
<stop offset="0.395833"/>
<stop offset="0.546875" stop-color="white"/>
<stop offset="0.713542"/>
<stop offset="0.833333" stop-color="white"/>
<stop offset="0.931117"/>
<stop offset="0.931504"/>
</radialGradient>
</defs>
</svg>
